<svg xmlns="http://www.w3.org/2000/svg" width="242.649" height="47.9" viewBox="0 0 242.649 47.9"><g transform="translate(-49.812 -86.58)"><g transform="translate(49.812 86.58)"><g transform="translate(0)"><path d="M90.485,90.181a20.36,20.36,0,0,1,3.552,40.4v-23.6h-23.6A20.419,20.419,0,0,1,90.485,90.17m0-3.59A23.958,23.958,0,0,0,66.54,110.533H90.485V134.48a23.942,23.942,0,0,0,0-47.884Z" transform="translate(-66.54 -86.58)" fill="#fff"/></g></g><g transform="translate(50.497 114.251)"><path d="M86.514,132.232H82.967V116.287H67.19V112.74H86.514Z" transform="translate(-67.19 -112.74)" fill="#47d2ff"/></g><g transform="translate(53.49 121.816)"><path d="M78.741,128.487H75.193v-5.044H70.02V119.89h8.721Z" transform="translate(-70.02 -119.89)" fill="#5d66ff"/></g><g transform="translate(107.566 99.493)"><g transform="translate(0 0)"><path d="M193.912,122.1l-3.034-7.911-3.126,7.911L186,126.547l-1.541,3.931H178.52l9.532-22.228h5.942l9.322,22.228h-6.2l-1.541-3.936" transform="translate(-178.52 -108.25)" fill="#fff"/></g><g transform="translate(25.138)"><g transform="translate(0)"><g transform="translate(0 4.872)"><path d="M209.932,116.746c-.943,0-1.622.34-1.622,1.071,0,2.266,9.024,1.157,8.981,7.137,0,3.5-3.077,5.515-7.267,5.515a12.553,12.553,0,0,1-7.742-2.437l1.8-3.633a11.136,11.136,0,0,0,6.072,2.136c1.027,0,1.8-.34,1.8-1.027,0-2.347-8.846-1.157-8.846-7.094,0-3.59,2.987-5.559,7.051-5.559a13.725,13.725,0,0,1,7.137,2.012l-1.925,3.677a11.9,11.9,0,0,0-5.429-1.8Z" transform="translate(-202.282 -112.855)" fill="#fff"/></g><g transform="translate(16.419 4.872)"><path d="M225.452,116.746c-.943,0-1.622.34-1.622,1.071,0,2.266,9.024,1.157,8.981,7.137,0,3.5-3.077,5.515-7.267,5.515a12.554,12.554,0,0,1-7.742-2.437l1.8-3.633a11.136,11.136,0,0,0,6.072,2.136c1.027,0,1.8-.34,1.8-1.027,0-2.347-8.846-1.157-8.846-7.094,0-3.59,3-5.559,7.056-5.559a13.725,13.725,0,0,1,7.137,2.012l-1.925,3.677a11.982,11.982,0,0,0-5.435-1.8Z" transform="translate(-217.802 -112.855)" fill="#fff"/></g><g transform="translate(33.023 4.849)"><path d="M251.129,123.165H239.207a3.845,3.845,0,0,0,3.882,2.987,5.594,5.594,0,0,0,4.017-1.757l2.952,2.952a9.66,9.66,0,0,1-7.483,3.034c-5.6,0-9.068-3.459-9.068-8.678a8.39,8.39,0,0,1,7.905-8.851,8.234,8.234,0,0,1,1.033.006C248.475,112.86,251.508,116.883,251.129,123.165Zm-5.472-3.034a3.072,3.072,0,0,0-2.83-3.287,2.324,2.324,0,0,0-.335-.006,3.542,3.542,0,0,0-3.417,3.293Z" transform="translate(-233.494 -112.839)" fill="#fff"/></g><g transform="translate(67.459 4.871)"><path d="M295.08,119.4v10.819h-5.643v-9.191a2.734,2.734,0,0,0-2.314-3.1,2.649,2.649,0,0,0-.509-.027,3.435,3.435,0,0,0-3.276,3.59c.005.1.017.2.027.3v8.462h-5.64v-9.23a2.734,2.734,0,0,0-2.314-3.1,2.649,2.649,0,0,0-.509-.027,3.434,3.434,0,0,0-3.276,3.585c.005.1.016.205.027.3v8.467h-5.6V113.083h5.6V115.9a6.086,6.086,0,0,1,5.6-3.034,5.7,5.7,0,0,1,5.726,3.852,6.15,6.15,0,0,1,5.985-3.852,5.911,5.911,0,0,1,6.143,5.677,6.6,6.6,0,0,1-.027.865Z" transform="translate(-266.05 -112.862)" fill="#fff"/></g><g transform="translate(98.92 4.871)"><path d="M314.557,121.615c0,5.3-3.758,8.764-9.4,8.764s-9.365-3.5-9.365-8.764,3.714-8.764,9.365-8.764S314.557,116.359,314.557,121.615Zm-13.085.043a3.732,3.732,0,1,0,3.677-4.239,3.8,3.8,0,0,0-3.695,3.9c.005.113.011.222.021.335h-.005Z" transform="translate(-295.79 -112.851)" fill="#fff"/></g><g transform="translate(120.561 4.865)"><path d="M333.774,119.4v10.819h-5.607v-9.191a2.83,2.83,0,0,0-2.5-3.115,2.545,2.545,0,0,0-.406-.016,3.386,3.386,0,0,0-3.374,3.25v9.068H316.25V113.067h5.64v2.779a6.283,6.283,0,0,1,5.694-2.987,5.935,5.935,0,0,1,6.218,5.634,5.574,5.574,0,0,1-.027.9Z" transform="translate(-316.25 -112.849)" fill="#fff"/></g><g transform="translate(142.103)"><path d="M344.006,124.022l-1.757,1.8v4.661h-5.64V108.25h5.64v10.857l5.472-5.812h6.411l-6.281,6.629,6.412,10.517h-6.672Z" transform="translate(-336.61 -108.25)" fill="#fff"/></g><g transform="translate(52.355)"><g transform="translate(3.174)"><rect width="5.645" height="22.233" fill="#fff"/></g><g transform="translate(0 4.404)"><rect width="12.014" height="5.726" fill="#fff"/></g></g></g></g></g></g></svg>